HIERARCHY
ROOT Hips
{
	OFFSET -3.958830 18.904000 13.208200
	CHANNELS 6 Xposition Yposition Zposition Zrotation Yrotation Xrotation 
	JOINT LHipJoint
	{
		OFFSET 0.000000 0.000000 0.000000
		CHANNELS 3 Zrotation Yrotation Xrotation
		JOINT LeftUpLeg
		{
			OFFSET 1.800000 -1.400000 0.085000
			CHANNELS 3 Zrotation Yrotation Xrotation
			JOINT LeftLeg
			{
				OFFSET 2.215000 -6.000000 0.000000
				CHANNELS 3 Zrotation Yrotation Xrotation
				JOINT LeftFoot
				{
					OFFSET 2.500000 -6.900000 0.000000
					CHANNELS 3 Zrotation Yrotation Xrotation
					JOINT LeftToeBase
					{
						OFFSET 0.200000 -0.500000 1.950000
						CHANNELS 3 Zrotation Yrotation Xrotation
						End Site
						{
							OFFSET 0.000000 0.000000 0.000000
						}
					}
				}
			}
		}
	}
	JOINT RHipJoint
	{
		OFFSET 0.000000 0.000000 0.000000
		CHANNELS 3 Zrotation Yrotation Xrotation
		JOINT RightUpLeg
		{
			OFFSET -1.800000 -1.400000 0.085000
			CHANNELS 3 Zrotation Yrotation Xrotation
			JOINT RightLeg
			{
				OFFSET -2.215000 -6.000000 0.000000
				CHANNELS 3 Zrotation Yrotation Xrotation
				JOINT RightFoot
				{
					OFFSET -2.500000 -6.900000 0.000000
					CHANNELS 3 Zrotation Yrotation Xrotation
					JOINT RightToeBase
					{
						OFFSET -0.200000 -0.500000 1.950000
						CHANNELS 3 Zrotation Yrotation Xrotation
						End Site
						{
							OFFSET 0.000000 0.000000 0.000000
						}
					}
				}
			}
		}
	}
	JOINT LowerBack
	{
		OFFSET 0.000000 0.000000 0.000000
		CHANNELS 3 Zrotation Yrotation Xrotation
		JOINT Spine
		{
			OFFSET -0.087000 1.940000 -0.288900
			CHANNELS 3 Zrotation Yrotation Xrotation
			JOINT Spine1
			{
				OFFSET 0.000000 1.950000 0.060000
				CHANNELS 3 Zrotation Yrotation Xrotation
				JOINT Neck
				{
					OFFSET 0.000000 0.000000 0.000000
					CHANNELS 3 Zrotation Yrotation Xrotation
					JOINT Neck1
					{
						OFFSET 0.000000 1.600000 0.340000
						CHANNELS 3 Zrotation Yrotation Xrotation
						JOINT Head
						{
							OFFSET 0.000000 1.667000 -0.240000
							CHANNELS 3 Zrotation Yrotation Xrotation
							End Site
							{
								OFFSET 0.000000 0.000000 0.000000
							}
						}
					}
				}
				JOINT LeftShoulder
				{
					OFFSET 0.000000 0.000000 0.000000
					CHANNELS 3 Zrotation Yrotation Xrotation
					JOINT LeftArm
					{
						OFFSET 2.700000 1.550000 -0.730000
						CHANNELS 3 Zrotation Yrotation Xrotation
						JOINT LeftForeArm
						{
							OFFSET 5.450000 0.000000 0.000000
							CHANNELS 3 Zrotation Yrotation Xrotation
							JOINT LeftHand
							{
								OFFSET 3.450000 0.000000 0.000000
								CHANNELS 3 Zrotation Yrotation Xrotation
								JOINT LeftHandIndex1
								{
									OFFSET 0.750000 0.000000 0.000000
									CHANNELS 3 Zrotation Yrotation Xrotation
									End Site
									{
										OFFSET 0.000000 0.000000 0.000000
									}
								}
							}
						}
					}
				}
				JOINT RightShoulder
				{
					OFFSET 0.000000 0.000000 0.000000
					CHANNELS 3 Zrotation Yrotation Xrotation
					JOINT RightArm
					{
						OFFSET -2.700000 1.550000 -0.730000
						CHANNELS 3 Zrotation Yrotation Xrotation
						JOINT RightForeArm
						{
							OFFSET -5.450000 0.000000 0.000000
							CHANNELS 3 Zrotation Yrotation Xrotation
							JOINT RightHand
							{
								OFFSET -3.450000 0.000000 0.000000
								CHANNELS 3 Zrotation Yrotation Xrotation
								JOINT RightHandIndex1
								{
									OFFSET -0.750000 0.000000 0.000000
									CHANNELS 3 Zrotation Yrotation Xrotation
									End Site
									{
										OFFSET 0.000000 0.000000 0.000000
									}
								}
							}
						}
					}
				}
			}
		}
	}
}
MOTION
Frames: 10
Frame Time: 0.016667
-1.478310 18.621910 -10.089270 -13.064273 -15.597340 -11.187388 -15.062878 12.312951 2.473568 27.285371 0.481359 1.324894 -15.369505 12.205898 20.020341 -0.028894 8.513009 1.799938 0.290450 -0.041830 0.130140 18.544595 -8.732137 4.908222 -39.275448 2.727258 -22.324188 85.680911 -48.959345 31.172382 -2.721719 -11.576131 0.616553 0.037710 0.673200 0.624710 -4.143793 -2.596016 -8.434327 30.276953 -12.890945 32.649867 -17.586341 -4.623739 7.878579 4.904366 -3.074233 -13.471948 -7.161604 1.790321 29.162911 -4.764710 0.261050 -18.380310 22.156508 -16.802682 3.133889 50.135349 -3.693485 -7.208107 40.552978 -10.953579 -3.565425 -4.784172 2.738610 0.784770 0.346090 0.120980 0.306930 -32.550475 18.171549 5.703460 -35.618501 -4.283611 -11.259811 -46.724688 10.786498 -4.712203 2.851214 -1.865594 -0.308600 0.439930 0.224040 -0.067690 
-1.570370 18.732240 -10.082330 -10.978158 -16.054908 -12.860645 -15.191365 12.511153 2.698281 27.424820 0.113784 0.368938 -17.928473 14.747906 25.500894 0.217239 9.395957 1.464489 0.282930 -0.082560 0.181870 18.410771 -8.432054 4.890416 -39.840455 3.196469 -20.480908 81.483787 -45.827584 31.637287 -2.714740 -11.476671 0.622005 -0.028810 0.557050 0.582280 -3.750931 -3.434733 -8.603143 25.806405 -12.073608 36.697527 -16.172587 -4.287386 5.181201 5.187307 -3.433422 -14.289791 -8.609067 1.675258 31.192522 -4.768190 0.158060 -20.466880 21.933537 -16.033034 3.276231 50.248792 -2.768602 -6.812713 40.292173 -9.475528 -3.119525 -4.660206 2.660639 0.884160 0.227120 0.190490 0.275670 -32.704480 18.735419 6.442085 -35.642571 -6.618135 -11.023207 -46.597945 10.111779 -4.077898 2.957287 -1.784774 -0.305920 0.412720 0.194310 -0.103450 
-1.733930 18.860360 -10.058410 -8.831812 -15.426776 -13.057794 -15.347692 12.343727 3.250389 28.551858 -1.061271 -3.107666 -23.181810 19.143207 32.050164 0.702650 10.782267 1.001122 0.255980 -0.100930 0.167940 18.299344 -8.083418 4.714979 -39.965901 3.001298 -18.891395 75.886337 -41.797968 31.301187 -2.663378 -11.290671 0.697805 -0.113410 0.489440 0.519540 -3.393003 -4.042697 -8.925346 21.311813 -10.700769 38.440520 -14.040669 -3.503221 1.492335 4.994786 -3.415243 -15.216205 -9.606435 1.427609 34.115135 -3.290390 -0.353050 -21.045740 21.359610 -15.493523 3.482596 50.572400 -1.743629 -5.908195 40.063334 -8.910342 -2.629132 -4.474832 2.612043 0.921520 0.126320 0.246680 0.295920 -31.387356 19.427447 7.542681 -36.271331 -8.237059 -10.055667 -46.380181 8.122317 -3.057556 3.029732 -1.639270 -0.276040 0.400260 0.135550 -0.077040 
-1.902830 18.952270 -10.019460 -7.769521 -15.587096 -11.884962 -15.418124 11.702772 3.973901 31.123718 -1.948205 -7.022993 -30.563148 24.807012 36.594450 1.139627 12.305794 0.543535 0.240650 -0.104210 0.150430 18.316947 -7.904126 4.477091 -39.138378 3.046629 -18.290138 69.907614 -38.098101 30.976240 -2.568756 -11.136413 0.744346 -0.120080 0.508620 0.488230 -3.404570 -3.691149 -9.210284 19.985971 -10.461174 37.590293 -14.237502 -2.918435 -0.396860 4.896247 -3.318202 -15.234482 -9.196579 1.464081 34.476935 -2.858620 -0.093400 -21.058900 20.674997 -13.863434 3.102737 51.165505 -0.139354 -4.380382 40.469220 -9.159864 -2.384841 -4.385949 2.578700 0.936890 0.123030 0.248780 0.317380 -30.395385 18.690553 8.023243 -36.275527 -7.692786 -9.715024 -45.932153 3.732803 -1.924950 3.061026 -1.515854 -0.301290 0.437330 0.122710 -0.070430 
-2.069240 19.007990 -9.984230 -6.288127 -15.571524 -10.972485 -15.557504 11.241187 4.712820 33.698546 -2.542119 -10.923045 -38.231009 31.109492 40.077514 1.594352 13.501667 0.236388 0.205780 -0.132240 0.122420 18.263352 -7.666617 4.198648 -38.298053 2.838635 -17.739563 63.539292 -34.432464 30.566653 -2.410160 -10.898808 0.777771 -0.143570 0.521360 0.470510 -3.197290 -3.705834 -9.506563 16.735980 -8.826350 37.029444 -12.111860 -1.684160 -1.468107 4.604042 -2.839449 -15.560825 -8.243795 1.006147 34.759991 -1.923560 -0.375960 -19.057400 20.813554 -12.830424 3.065373 50.296776 1.069365 -3.801423 41.096711 -7.646876 -2.091004 -4.403164 2.604541 0.900920 0.126410 0.229100 0.317580 -29.721069 18.136548 8.699721 -36.016887 -9.052783 -8.754562 -44.716661 1.535583 -1.096003 3.119709 -1.472034 -0.298720 0.418750 0.117400 -0.051940 
-2.225830 19.037190 -9.933150 -4.310729 -15.991362 -9.892047 -15.733354 10.942918 5.400865 36.097229 -2.701783 -15.062648 -45.657265 38.463238 43.377417 1.995971 14.305688 0.085371 0.153850 -0.216000 0.145520 18.166653 -7.421060 3.922338 -37.798433 2.377949 -17.449130 57.346073 -30.774133 29.562588 -2.214711 -10.429802 0.906577 -0.222240 0.472880 0.402310 -2.863874 -3.957124 -9.817868 12.374981 -6.684104 35.628882 -8.875714 -0.382269 -2.671581 4.521501 -2.525725 -16.355280 -8.524935 0.865975 37.874003 -1.288550 -0.542240 -18.045570 20.462085 -12.866800 3.575774 49.337534 2.183608 -3.386691 40.392226 -5.575460 -1.558190 -4.337874 2.515263 0.945680 0.062430 0.242700 0.293900 -28.782590 18.783533 9.563067 -36.913347 -10.047944 -7.705788 -41.703550 -0.503818 -0.130700 3.154092 -1.292821 -0.323380 0.417350 0.095350 -0.074860 
-2.385450 19.016510 -9.885970 -2.288831 -16.105272 -8.070026 -15.874633 10.625319 5.951260 38.245195 -2.084907 -19.488969 -52.754028 45.481464 44.954159 2.196318 14.597104 0.055328 0.106780 -0.268780 0.128070 18.105972 -7.303923 3.679967 -37.435006 1.820851 -17.855641 51.250989 -27.144326 28.028954 -1.951887 -9.890806 1.026889 -0.249780 0.460600 0.366400 -2.624223 -3.866080 -10.047764 8.331112 -4.424677 32.702397 -5.941466 0.830668 -2.873140 4.351512 -1.949127 -16.626792 -7.418294 0.167866 38.413889 -1.324250 -0.729110 -16.584700 20.273292 -12.260081 3.690208 47.932097 3.092857 -3.045896 40.419727 -3.915732 -1.224353 -4.350273 2.506741 0.941540 0.056310 0.218460 0.268570 -27.970670 18.416272 10.120384 -36.458402 -10.638009 -7.049849 -40.016573 -2.454500 0.483992 3.175935 -1.217915 -0.346670 0.400080 0.105400 -0.088850 
-2.551750 18.979260 -9.825940 -0.820295 -16.057195 -6.230920 -15.991512 10.353592 6.441923 41.136498 -0.853381 -23.688971 -60.298532 52.321546 45.021096 2.301939 14.386004 0.161080 0.185780 -0.194050 0.166640 18.065762 -7.330240 3.336950 -35.985578 1.352418 -18.204061 44.340782 -23.689188 26.818231 -1.704396 -9.279791 1.157341 -0.225850 0.425080 0.425400 -2.447173 -3.601426 -10.165936 5.383215 -2.913082 29.674716 -3.594933 1.431989 -2.865552 4.297988 -1.570639 -16.064100 -6.115174 -0.538125 37.012393 -1.870150 -0.661230 -15.823950 18.848339 -11.815538 3.649974 47.026222 3.951669 -2.831826 40.658481 -1.992620 -0.892008 -4.314064 2.642861 0.908640 0.061120 0.236810 0.306460 -26.345482 17.877420 9.910264 -37.656798 -10.870617 -6.039276 -38.222966 -3.660100 0.788484 3.122647 -1.267861 -0.281760 0.305890 0.039100 -0.073390 
-2.710840 18.905020 -9.765550 0.963459 -16.704841 -4.353555 -16.028002 10.062509 6.806145 43.555813 1.427956 -27.954049 -67.916912 60.121798 44.585310 2.238370 13.910658 0.360168 0.106370 -0.332470 0.118350 18.095842 -7.527052 3.028169 -34.784949 1.233694 -19.133396 37.355807 -20.087793 25.021441 -1.326810 -8.464579 1.363717 -0.274170 0.512330 0.443740 -2.488854 -2.922660 -10.184485 3.158349 -1.897207 25.498354 -3.247763 1.544097 -1.421205 3.998637 -1.057473 -16.081762 -4.431665 -0.748376 35.511187 -1.357750 -0.654800 -12.642720 18.359540 -11.638154 4.041716 44.904829 6.429710 -2.621786 42.161365 0.016212 -0.569972 -4.465777 2.678970 0.886940 0.127810 0.145410 0.281500 -25.383686 17.256156 10.194257 -36.385196 -10.863413 -5.958335 -37.315877 -5.074708 1.051743 3.145112 -1.246975 -0.330510 0.292320 0.112870 -0.091830 
-2.867320 18.806460 -9.686500 2.147312 -17.068678 -2.434571 -16.090152 10.046090 6.990489 45.956094 3.891099 -31.347574 -76.926971 66.656342 41.626517 2.117279 12.892450 0.709573 0.109080 -0.286990 0.083750 18.071538 -7.804745 2.607951 -32.586316 1.128981 -18.742565 30.482537 -16.119544 21.816874 -0.981302 -7.335438 1.727669 -0.251100 0.555230 0.459600 -2.391081 -2.521131 -10.062393 1.586892 -0.768513 20.863949 -2.438179 1.553225 0.512251 3.910747 -0.484465 -15.576821 -2.841708 -1.428351 33.518985 -1.990300 -0.489400 -12.182230 17.525750 -11.316908 4.119929 42.863746 7.011568 -2.904025 42.039626 1.480416 -0.352502 -4.526539 2.707686 0.825640 0.175670 0.139270 0.322990 -24.457249 16.291595 9.858324 -35.868495 -10.314563 -5.645333 -35.661694 -5.703623 1.047869 3.137855 -1.246981 -0.312040 0.298110 0.087800 -0.049150 
